<svg width="500" height="500" viewBox="0 0 132.292 132.292" version="1.1" id="svg1" xml:space="preserve" xmlns="http://www.w3.org/2000/svg"><g id="layer1"><path style="fill-opacity:1;stroke-width:.113835" d="M35.99 86.35A254472.66 254472.66 0 0 0 5.905 56.184c-.11-.107 29.91-30.138 30.128-30.138.088 0 2.362 2.203 5.054 4.895 2.691 2.692 4.945 4.895 5.008 4.895.062 0 4.608-4.495 10.102-9.988l9.988-9.987 9.963 9.959c5.48 5.477 10.014 9.976 10.076 9.997.063.021 2.352-2.197 5.087-4.93l4.973-4.967 15.042 15.004c8.273 8.252 15.051 15.08 15.061 15.174.02.188-60.063 60.333-60.27 60.333-.071 0-13.628-13.536-30.127-30.08zm50.222-10.264 19.968-19.968-4.882-4.904c-2.685-2.698-4.934-4.905-4.999-4.905-.064 0-6.853 6.736-15.086 14.969-8.232 8.233-15.02 14.97-15.082 14.97-.063 0-6.863-6.75-15.112-14.998L36.021 46.252l-4.952 4.952-4.952 4.95 19.95 19.95c10.972 10.973 20 19.95 20.063 19.95.063 0 9.1-8.985 20.082-19.968zM71.09 51.112c2.688-2.68 4.887-4.92 4.887-4.98 0-.145-9.702-9.84-9.847-9.84-.063 0-2.317 2.202-5.008 4.894l-4.894 4.895 4.95 4.952c2.723 2.723 4.968 4.952 4.988 4.952.02 0 2.236-2.193 4.924-4.873z" id="path79"/></g><style>@media (prefers-color-scheme:dark){path{fill:#fff}}</style></svg>